<svg xmlns="http://www.w3.org/2000/svg" viewBox="0 0 256 256" role="img" aria-label="Sulkan logo">
  <defs>
    <linearGradient id="sulkan-gradient" x1="0" y1="0" x2="1" y2="1">
      <stop offset="0" stop-color="#1d4ed8" />
      <stop offset="1" stop-color="#0f2f6f" />
    </linearGradient>
  </defs>
  <circle cx="128" cy="128" r="112" fill="#ffffff" stroke="#e2e8f0" stroke-width="10" />
  <path fill="url(#sulkan-gradient)" d="M128 58c-26.5 0-48 13.5-48 33.8 0 18.6 15.8 27.3 37.3 33.6l21.3 6.3c11.5 3.4 17.9 6.6 17.9 13.4 0 8.8-11.5 15-27.2 15-15.5 0-30.3-6.7-40.4-16.8l-15.7 17.1c12.7 13 31.6 21.1 55.1 21.1 30.8 0 52-14.6 52-36.6 0-19.4-16.3-29.1-38.7-35.6l-20.8-6.1c-11.7-3.4-17-6.4-17-12.6 0-8.1 10.1-13.5 24.7-13.5 13.8 0 25.4 4.9 35.4 13.8l15.4-17.2c-12.2-10.6-28.7-16.7-51.3-16.7z" />
</svg>
